<svg width="31" height="27" viewBox="0 0 31 27" fill="none" xmlns="http://www.w3.org/2000/svg">
<path d="M22.4219 1C26.3933 1 29.625 4.23166 29.625 8.20312C29.625 9.33482 29.0987 10.491 28.4805 11.4385C27.8754 12.3658 27.257 12.9807 27.2246 13.0127L15.3125 24.9248L3.39355 13.0059C3.36402 12.9766 2.74746 12.3634 2.14355 11.4375C1.52615 10.4908 1 9.33485 1 8.20312C1 4.23166 4.23166 1 8.20312 1C10.9803 1 13.4047 2.75561 14.6455 3.86621L15.3125 4.46387L15.9795 3.86621C17.2203 2.75561 19.6447 1 22.4219 1Z" fill="white" stroke="white" stroke-width="2"/>
</svg>
