<svg width="60" height="61" viewBox="0 0 60 61" fill="none" xmlns="http://www.w3.org/2000/svg">
<g clip-path="url(#clip0_55_1700)">
<path d="M51.7585 28.3349L60 30.8993L51.7945 33.3033C50.9491 43.3832 42.5876 51.6491 32.6674 52.908L30.1313 61L29.8593 60.6723L27.3339 52.9053C17.4631 51.6719 8.9482 43.2588 8.24685 33.1936L0 30.8993C0.0186671 30.6946 0.201338 30.6946 0.340008 30.6411C2.8014 29.6806 5.67613 29.3342 8.13751 28.2974C9.49621 18.4382 17.6031 10.3863 27.4019 8.96425L30.002 0L32.5967 8.96559C42.4316 10.3622 50.6038 18.3606 51.7585 28.3349ZM16.875 44.2046C30.4393 57.6998 52.5065 44.7102 48.0691 26.4847C44.9557 13.6972 29.906 8.19237 19.1578 15.8095C9.85222 22.4033 8.81353 36.1874 16.8737 44.2059L16.875 44.2046Z" fill="#FF4002"/>
<path d="M29.4393 15.8242C37.5048 15.439 44.5636 21.9926 45.073 30.0258C45.8757 42.6702 31.6673 50.7916 21.2898 43.4528C9.65218 35.2243 15.1056 16.5078 29.4393 15.8229V15.8242ZM27.5139 19.7117C23.9005 23.4307 30.2006 28.3402 32.9114 24.2574C35.3674 20.5585 30.3446 16.7981 27.5139 19.7117ZM21.1644 25.8507C16.723 26.5476 18.2657 33.7835 22.8911 32.13C26.4925 30.8431 25.1165 25.2299 21.1644 25.8507ZM37.7021 25.8533C36.6034 26.0112 35.2861 27.2192 35.0994 28.3242C34.3501 32.7735 40.5422 33.94 41.4876 29.6499C41.9876 27.3851 39.9129 25.5363 37.7021 25.852V25.8533ZM29.4286 29.191C28.4806 29.4077 28.0246 30.4431 28.1659 31.3368C28.5486 33.7728 32.506 33.2698 31.8407 30.3281C31.6273 29.3863 30.2806 28.997 29.4299 29.191H29.4286ZM24.6325 35.4824C21.0911 36.0456 21.1738 41.3873 24.2085 41.8622C30.0086 42.7705 29.45 34.7159 24.6325 35.4824ZM34.2327 35.4811C31.6713 35.9199 30.8166 39.3017 32.602 41.0662C34.0047 42.4521 36.7768 42.115 37.7621 40.3599C39.1728 37.8436 36.9755 35.0116 34.2327 35.4811Z" fill="#FF4002"/>
</g>
<defs>
<clipPath id="clip0_55_1700">
<rect width="60" height="61" fill="white"/>
</clipPath>
</defs>
</svg>
